<svg width="48" height="48" viewBox="0 0 48 48" fill="none" xmlns="http://www.w3.org/2000/svg">
<path fill-rule="evenodd" clip-rule="evenodd" d="M10.5 17.9996C10.5002 10.5439 16.5443 4.5 24 4.5C31.4559 4.5 37.5 10.5442 37.5 18L37.4996 18.0984V19.5C37.4996 23.7463 39.1017 27.6148 41.7367 30.5398C42.0697 30.9094 42.1978 31.4201 42.0786 31.9031C41.9594 32.3861 41.6085 32.7786 41.1418 32.9509C38.0537 34.0909 34.8211 34.9317 31.4792 35.4384C31.493 35.6239 31.5 35.8112 31.5 36C31.5 40.1421 28.1422 43.5 24 43.5C19.8579 43.5 16.5 40.1421 16.5 36C16.5 35.8113 16.507 35.624 16.5208 35.4385C13.1787 34.9319 9.94575 34.091 6.8575 32.9509C6.39078 32.7786 6.03985 32.3861 5.92066 31.9031C5.80147 31.4201 5.92953 30.9094 6.26253 30.5398C8.89759 27.6148 10.4996 23.7463 10.4996 19.5L10.5 17.9996ZM19.5044 35.7985C19.5015 35.8653 19.5 35.9324 19.5 36C19.5 38.4853 21.5147 40.5 24 40.5C26.4853 40.5 28.5 38.4853 28.5 36C28.5 35.9324 28.4985 35.8652 28.4956 35.7985C27.0145 35.9319 25.5148 36 23.9996 36C22.4847 36 20.9853 35.9319 19.5044 35.7985Z" fill="white"/>
</svg>
