<svg width="24" height="24" viewBox="0 0 24 24" fill="none" xmlns="http://www.w3.org/2000/svg">
<path fill-rule="evenodd" clip-rule="evenodd" d="M11.828 2.25464C10.9115 2.25464 10.1292 2.91729 9.97854 3.82139L9.88699 4.37066C9.84017 4.65159 9.63707 4.87871 9.37035 4.97858C9.20811 5.03933 9.04853 5.10554 8.89184 5.17699C8.63259 5.2952 8.32822 5.27827 8.09636 5.11265L7.64299 4.78882C6.89714 4.25607 5.87546 4.34063 5.22734 4.98874L4.98413 5.23196C4.33601 5.88008 4.25145 6.90176 4.7842 7.64761L5.10803 8.10096C5.27364 8.33283 5.29057 8.6372 5.17236 8.89646C5.10091 9.05315 5.0347 9.21273 4.97395 9.37497C4.87408 9.6417 4.64695 9.8448 4.36602 9.89162L3.81675 9.98316C2.91265 10.1338 2.25 10.9161 2.25 11.8327V12.1766C2.25 13.0932 2.91265 13.8754 3.81675 14.0261L4.36602 14.1176C4.64695 14.1645 4.87407 14.3676 4.97395 14.6343C5.03469 14.7965 5.1009 14.9561 5.17234 15.1128C5.29056 15.372 5.27362 15.6764 5.10801 15.9083L4.78416 16.3617C4.25141 17.1075 4.33597 18.1292 4.98408 18.7773L5.2273 19.0205C5.87541 19.6687 6.8971 19.7532 7.64295 19.2205L8.09633 18.8966C8.32819 18.731 8.63256 18.7141 8.89182 18.8323C9.04851 18.9037 9.20809 18.9699 9.37034 19.0307C9.63706 19.1306 9.84016 19.3577 9.88698 19.6386L9.97852 20.1879C10.1292 21.092 10.9114 21.7546 11.828 21.7546H12.172C13.0885 21.7546 13.8708 21.092 14.0215 20.1879L14.113 19.6386C14.1598 19.3577 14.3629 19.1306 14.6297 19.0307C14.7919 18.9699 14.9515 18.9037 15.1082 18.8323C15.3674 18.7141 15.6718 18.731 15.9036 18.8966L16.357 19.2205C17.1029 19.7532 18.1245 19.6686 18.7727 19.0205L19.0159 18.7773C19.664 18.1292 19.7485 17.1075 19.2158 16.3617L18.892 15.9083C18.7264 15.6764 18.7094 15.3721 18.8276 15.1128C18.8991 14.9561 18.9653 14.7966 19.026 14.6343C19.1259 14.3676 19.353 14.1645 19.634 14.1177L20.1832 14.0261C21.0873 13.8754 21.75 13.0932 21.75 12.1766V11.8327C21.75 10.9161 21.0874 10.1339 20.1832 9.98317L19.634 9.89163C19.3531 9.84481 19.1259 9.64171 19.0261 9.37499C18.9653 9.21275 18.8991 9.05317 18.8277 8.89649C18.7094 8.63723 18.7264 8.33286 18.892 8.101L19.2158 7.64761C19.7486 6.90176 19.664 5.88008 19.0159 5.23196L18.7727 4.98874C18.1246 4.34063 17.1029 4.25607 16.3571 4.78882L15.9037 5.11266C15.6718 5.27828 15.3674 5.29521 15.1082 5.177C14.9515 5.10555 14.7919 5.03934 14.6297 4.97859C14.3629 4.87872 14.1598 4.65159 14.113 4.37066L14.0215 3.82139C13.8708 2.91729 13.0886 2.25464 12.172 2.25464H11.828ZM12 15.7546C14.0711 15.7546 15.75 14.0757 15.75 12.0046C15.75 9.93357 14.0711 8.25464 12 8.25464C9.92893 8.25464 8.25 9.93357 8.25 12.0046C8.25 14.0757 9.92893 15.7546 12 15.7546Z" fill="#0F172A"/>
</svg>
