<svg width="40" height="40" viewBox="0 0 40 40" fill="none" xmlns="http://www.w3.org/2000/svg">
<path fill-rule="evenodd" clip-rule="evenodd" d="M9.375 2.5H15C18.4518 2.5 21.25 5.29822 21.25 8.75V11.875C21.25 13.6009 22.6491 15 24.375 15H27.5C30.9518 15 33.75 17.7982 33.75 21.25V34.375C33.75 36.1009 32.3509 37.5 30.625 37.5H9.375C7.64911 37.5 6.25 36.1009 6.25 34.375V5.625C6.25 3.89911 7.64911 2.5 9.375 2.5ZM21.25 20C21.25 19.3096 20.6904 18.75 20 18.75C19.3096 18.75 18.75 19.3096 18.75 20V23.75H15C14.3096 23.75 13.75 24.3096 13.75 25C13.75 25.6904 14.3096 26.25 15 26.25H18.75V30C18.75 30.6904 19.3096 31.25 20 31.25C20.6904 31.25 21.25 30.6904 21.25 30V26.25H25C25.6904 26.25 26.25 25.6904 26.25 25C26.25 24.3096 25.6904 23.75 25 23.75H21.25V20Z" fill="#4264D0"/>
<path d="M23.75 8.75C23.75 6.56158 22.9466 4.5608 21.6187 3.02651C27.2835 4.50629 31.7437 8.96646 33.2235 14.6313C31.6892 13.3034 29.6884 12.5 27.5 12.5H24.375C24.0298 12.5 23.75 12.2202 23.75 11.875V8.75Z" fill="#4264D0"/>
</svg>
