<svg width="48" height="48" viewBox="0 0 48 48" fill="none" xmlns="http://www.w3.org/2000/svg">
<path fill-rule="evenodd" clip-rule="evenodd" d="M22.3028 5.50299C23.2401 4.56573 24.7597 4.56573 25.6969 5.50299L42.4969 22.303C43.1833 22.9894 43.3887 24.0217 43.0172 24.9185C42.6457 25.8153 41.7706 26.4 40.7999 26.4H38.3999V40.8C38.3999 42.1255 37.3254 43.2001 35.9999 43.2001H31.1999C29.8744 43.2001 28.7999 42.1255 28.7999 40.8V33.6C28.7999 32.2746 27.7254 31.2001 26.3999 31.2001H21.5999C20.2744 31.2001 19.1999 32.2746 19.1999 33.6V40.8C19.1999 42.1255 18.1254 43.2001 16.7999 43.2001H11.9999C10.6744 43.2001 9.59987 42.1255 9.59987 40.8V26.4H7.19987C6.22917 26.4 5.35404 25.8153 4.98256 24.9185C4.61109 24.0217 4.81642 22.9894 5.50282 22.303L22.3028 5.50299Z" fill="white"/>
</svg>
