<svg width="40" height="40" viewBox="0 0 40 40" fill="none" xmlns="http://www.w3.org/2000/svg">
<path fill-rule="evenodd" clip-rule="evenodd" d="M17.8602 0.865123C18.8166 -0.104455 20.3672 -0.104455 21.3236 0.865123L38.4665 18.2444C39.1669 18.9545 39.3764 20.0224 38.9973 20.9501C38.6183 21.8779 37.7253 22.4828 36.7348 22.4828H34.2858V37.3793C34.2858 38.7505 33.1893 39.8621 31.8368 39.8621H26.9388C25.5863 39.8621 24.4899 38.7505 24.4899 37.3793V29.931C24.4899 28.5599 23.3934 27.4483 22.0409 27.4483H17.1429C15.7904 27.4483 14.6939 28.5599 14.6939 29.931V37.3793C14.6939 38.7505 13.5975 39.8621 12.245 39.8621H7.34701C5.99448 39.8621 4.89803 38.7505 4.89803 37.3793V22.4828H2.44905C1.45853 22.4828 0.565545 21.8779 0.186489 20.9501C-0.192566 20.0224 0.0169578 18.9545 0.717361 18.2444L17.8602 0.865123Z" fill="#2E2E2E"/>
</svg>
