<svg width="50" height="50" viewBox="0 0 50 50" fill="none" xmlns="http://www.w3.org/2000/svg">
<path fill-rule="evenodd" clip-rule="evenodd" d="M22.8602 5.86512C23.8166 4.89555 25.3672 4.89555 26.3236 5.86512L43.4665 23.2444C44.1669 23.9545 44.3764 25.0224 43.9973 25.9501C43.6183 26.8779 42.7253 27.4828 41.7348 27.4828H39.2858V42.3793C39.2858 43.7505 38.1893 44.8621 36.8368 44.8621H31.9388C30.5863 44.8621 29.4899 43.7505 29.4899 42.3793V34.931C29.4899 33.5599 28.3934 32.4483 27.0409 32.4483H22.1429C20.7904 32.4483 19.6939 33.5599 19.6939 34.931V42.3793C19.6939 43.7505 18.5975 44.8621 17.245 44.8621H12.347C10.9945 44.8621 9.89803 43.7505 9.89803 42.3793V27.4828H7.44905C6.45853 27.4828 5.56554 26.8779 5.18649 25.9501C4.80743 25.0224 5.01696 23.9545 5.71736 23.2444L22.8602 5.86512Z" fill="#2E2E2E"/>
</svg>
