<svg width="48" height="48" viewBox="0 0 48 48" fill="none" xmlns="http://www.w3.org/2000/svg">
<path fill-rule="evenodd" clip-rule="evenodd" d="M21 7.5C13.5442 7.5 7.5 13.5442 7.5 21C7.5 28.4558 13.5442 34.5 21 34.5C24.7283 34.5 28.1013 32.9906 30.5459 30.5459C32.9906 28.1013 34.5 24.7283 34.5 21C34.5 13.5442 28.4558 7.5 21 7.5ZM4.5 21C4.5 11.8873 11.8873 4.5 21 4.5C30.1127 4.5 37.5 11.8873 37.5 21C37.5 25.0157 36.064 28.6981 33.6799 31.5585L43.0607 40.9393C43.6464 41.5251 43.6464 42.4749 43.0607 43.0607C42.4749 43.6464 41.5251 43.6464 40.9393 43.0607L31.5585 33.6799C28.6981 36.064 25.0157 37.5 21 37.5C11.8873 37.5 4.5 30.1127 4.5 21Z" fill="white"/>
</svg>
