<svg width="20" height="20" viewBox="0 0 20 20" fill="none" xmlns="http://www.w3.org/2000/svg">
<path fill-rule="evenodd" clip-rule="evenodd" d="M10 0.266113C4.61522 0.266113 0.25 4.63134 0.25 10.0161C0.25 15.4009 4.61522 19.7661 10 19.7661C15.3848 19.7661 19.75 15.4009 19.75 10.0161C19.75 4.63134 15.3848 0.266113 10 0.266113ZM10.75 7.01611C10.75 6.6019 10.4142 6.26611 10 6.26611C9.58579 6.26611 9.25 6.6019 9.25 7.01611V9.26611H7C6.58579 9.26611 6.25 9.6019 6.25 10.0161C6.25 10.4303 6.58579 10.7661 7 10.7661H9.25V13.0161C9.25 13.4303 9.58579 13.7661 10 13.7661C10.4142 13.7661 10.75 13.4303 10.75 13.0161V10.7661H13C13.4142 10.7661 13.75 10.4303 13.75 10.0161C13.75 9.6019 13.4142 9.26611 13 9.26611H10.75V7.01611Z" fill="#0F172A"/>
</svg>
