<svg width="40" height="40" viewBox="0 0 40 40" fill="none" xmlns="http://www.w3.org/2000/svg">
<path d="M38.4813 1.51871C36.4564 -0.506235 33.1733 -0.506235 31.1483 1.51871L28.8626 3.80443L36.1956 11.1374L38.4813 8.85167C40.5062 6.82673 40.5062 3.54365 38.4813 1.51871Z" fill="#2E2E2E"/>
<path d="M34.1004 13.2325L26.7675 5.89956L10.1732 22.4938C8.95487 23.7122 8.05929 25.2149 7.5674 26.8662L5.98759 32.1696C5.83229 32.691 5.9752 33.2555 6.35985 33.6401C6.7445 34.0248 7.30901 34.1677 7.83036 34.0124L13.1338 32.4326C14.7851 31.9407 16.2879 31.0451 17.5062 29.8268L34.1004 13.2325Z" fill="#2E2E2E"/>
<path d="M5.92593 7.40739C2.65313 7.40739 0 10.0605 0 13.3333V34.0741C0 37.3469 2.65313 40 5.92593 40H26.6667C29.9395 40 32.5926 37.3469 32.5926 34.0741V23.7037C32.5926 22.8855 31.9293 22.2222 31.1111 22.2222C30.2929 22.2222 29.6296 22.8855 29.6296 23.7037V34.0741C29.6296 35.7105 28.3031 37.037 26.6667 37.037H5.92593C4.28953 37.037 2.96296 35.7105 2.96296 34.0741V13.3333C2.96296 11.6969 4.28953 10.3704 5.92593 10.3704H16.2963C17.1145 10.3704 17.7778 9.70708 17.7778 8.88888C17.7778 8.07068 17.1145 7.40739 16.2963 7.40739H5.92593Z" fill="#2E2E2E"/>
</svg>
