<svg width="24" height="24" viewBox="0 0 24 24" fill="none" xmlns="http://www.w3.org/2000/svg">
<path fill-rule="evenodd" clip-rule="evenodd" d="M7.50009 6.00684C7.50009 3.52155 9.51481 1.50684 12.0001 1.50684C14.4854 1.50684 16.5001 3.52155 16.5001 6.00684C16.5001 8.49212 14.4854 10.5068 12.0001 10.5068C9.51481 10.5068 7.50009 8.49212 7.50009 6.00684Z" fill="#0F172A"/>
<path fill-rule="evenodd" clip-rule="evenodd" d="M3.75133 20.1122C3.82867 15.6224 7.49207 12.0068 12.0001 12.0068C16.5082 12.0068 20.1717 15.6226 20.2488 20.1125C20.254 20.4103 20.0824 20.6828 19.8117 20.807C17.4328 21.8986 14.7866 22.5068 12.0004 22.5068C9.21395 22.5068 6.56752 21.8985 4.18841 20.8067C3.91774 20.6825 3.7462 20.4099 3.75133 20.1122Z" fill="#0F172A"/>
</svg>
