<svg width="24" height="24" viewBox="0 0 24 24" fill="none" xmlns="http://www.w3.org/2000/svg">
<path d="M4.5 6.38184C4.5 4.10366 6.34683 2.25684 8.625 2.25684C10.9032 2.25684 12.75 4.10366 12.75 6.38184C12.75 8.66001 10.9032 10.5068 8.625 10.5068C6.34683 10.5068 4.5 8.66001 4.5 6.38184Z" fill="#0F172A"/>
<path d="M14.25 8.63184C14.25 6.76787 15.761 5.25684 17.625 5.25684C19.489 5.25684 21 6.76787 21 8.63184C21 10.4958 19.489 12.0068 17.625 12.0068C15.761 12.0068 14.25 10.4958 14.25 8.63184Z" fill="#0F172A"/>
<path d="M1.5 19.1318C1.5 15.1968 4.68997 12.0068 8.625 12.0068C12.56 12.0068 15.75 15.1968 15.75 19.1318V19.1344C15.75 19.1742 15.7496 19.2142 15.749 19.2538C15.7446 19.5123 15.6074 19.7503 15.3859 19.8837C13.4107 21.073 11.0966 21.7568 8.625 21.7568C6.15343 21.7568 3.8393 21.073 1.86406 19.8837C1.64256 19.7503 1.50537 19.5123 1.50103 19.2538C1.50034 19.2132 1.5 19.1726 1.5 19.1318Z" fill="#0F172A"/>
<path d="M17.2498 19.135C17.2498 19.183 17.2494 19.2312 17.2486 19.279C17.2429 19.6176 17.1612 19.9446 17.0157 20.2388C17.2172 20.2508 17.4203 20.2568 17.6248 20.2568C19.2206 20.2568 20.732 19.8872 22.0764 19.2281C22.3234 19.107 22.4843 18.8604 22.4957 18.5855C22.4984 18.5179 22.4998 18.45 22.4998 18.3818C22.4998 15.6894 20.3172 13.5068 17.6248 13.5068C16.8784 13.5068 16.1711 13.6746 15.5387 13.9745C16.6135 15.413 17.2498 17.1981 17.2498 19.1318V19.135Z" fill="#0F172A"/>
</svg>
