<svg width="40" height="40" viewBox="0 0 40 40" fill="none" xmlns="http://www.w3.org/2000/svg">
<path d="M8.75 10.625C8.75 6.82804 11.828 3.75 15.625 3.75C19.422 3.75 22.5 6.82804 22.5 10.625C22.5 14.422 19.422 17.5 15.625 17.5C11.828 17.5 8.75 14.422 8.75 10.625Z" fill="white"/>
<path d="M3.75 31.875C3.75 25.3166 9.06662 20 15.625 20C22.1834 20 27.5 25.3166 27.5 31.875V31.8793C27.5 31.9456 27.4994 32.0123 27.4983 32.0782C27.491 32.5091 27.2624 32.9058 26.8932 33.1281C23.6012 35.1102 19.7443 36.25 15.625 36.25C11.5057 36.25 7.64883 35.1102 4.35677 33.1281C3.9876 32.9058 3.75895 32.5091 3.75171 32.0782C3.75057 32.0106 3.75 31.9429 3.75 31.875Z" fill="white"/>
<path d="M31.25 12.5C31.25 11.8096 30.6904 11.25 30 11.25C29.3096 11.25 28.75 11.8096 28.75 12.5V16.25H25C24.3096 16.25 23.75 16.8096 23.75 17.5C23.75 18.1904 24.3096 18.75 25 18.75H28.75V22.5C28.75 23.1904 29.3096 23.75 30 23.75C30.6904 23.75 31.25 23.1904 31.25 22.5V18.75H35C35.6904 18.75 36.25 18.1904 36.25 17.5C36.25 16.8096 35.6904 16.25 35 16.25H31.25V12.5Z" fill="white"/>
</svg>
